HIERARCHY
ROOT root
{
	OFFSET	0.000000	0.000000	0.000000
	CHANNELS 6 Xposition Yposition Zposition Zrotation Yrotation Xrotation
	JOINT lhipjoint
	{
		OFFSET	0.000000	0.000000	0.000000
		CHANNELS 3 Zrotation Yrotation Xrotation
		JOINT lfemur
		{
			OFFSET	1.656736	-1.802822	0.624766
			CHANNELS 3 Zrotation Yrotation Xrotation
			JOINT ltibia
			{
				OFFSET	2.597200	-7.135754	0.000000
				CHANNELS 3 Zrotation Yrotation Xrotation
				JOINT lfoot
				{
					OFFSET	2.492357	-6.847701	0.000000
					CHANNELS 3 Zrotation Yrotation Xrotation
					JOINT ltoes
					{
						OFFSET	0.197038	-0.541357	2.145811
						CHANNELS 3 Zrotation Yrotation Xrotation
						End Site
						{
							OFFSET	0.000000	-0.000000	1.112490
						}
					}
				}
			}
		}
	}
	JOINT rhipjoint
	{
		OFFSET	0.000000	0.000000	0.000000
		CHANNELS 3 Zrotation Yrotation Xrotation
		JOINT rfemur
		{
			OFFSET	-1.610701	-1.802823	0.624765
			CHANNELS 3 Zrotation Yrotation Xrotation
			JOINT rtibia
			{
				OFFSET	-2.595021	-7.129768	0.000000
				CHANNELS 3 Zrotation Yrotation Xrotation
				JOINT rfoot
				{
					OFFSET	-2.467804	-6.780241	0.000000
					CHANNELS 3 Zrotation Yrotation Xrotation
					JOINT rtoes
					{
						OFFSET	-0.230239	-0.632577	2.133676
						CHANNELS 3 Zrotation Yrotation Xrotation
						End Site
						{
							OFFSET	-0.000000	-0.000000	1.115690
						}
					}
				}
			}
		}
	}
	JOINT lowerback
	{
		OFFSET	0.000000	0.000000	0.000000
		CHANNELS 3 Zrotation Yrotation Xrotation
		JOINT upperback
		{
			OFFSET	0.019612	2.054496	-0.141116
			CHANNELS 3 Zrotation Yrotation Xrotation
			JOINT thorax
			{
				OFFSET	0.010210	2.064356	-0.059210
				CHANNELS 3 Zrotation Yrotation Xrotation
				JOINT lowerneck
				{
					OFFSET	0.001509	2.068054	0.008037
					CHANNELS 3 Zrotation Yrotation Xrotation
					JOINT upperneck
					{
						OFFSET	0.007130	1.567112	0.149683
						CHANNELS 3 Zrotation Yrotation Xrotation
						JOINT head
						{
							OFFSET	0.034286	1.560409	-0.100058
							CHANNELS 3 Zrotation Yrotation Xrotation
							End Site
							{
								OFFSET	0.013051	1.625595	-0.052648
							}
						}
					}
				}
				JOINT lclavicle
				{
					OFFSET	0.001509	2.068054	0.008037
					CHANNELS 3 Zrotation Yrotation Xrotation
					JOINT lhumerus
					{
						OFFSET	3.542050	0.904362	-0.173638
						CHANNELS 3 Zrotation Yrotation Xrotation
						JOINT lradius
						{
							OFFSET	4.865130	-0.000000	-0.000000
							CHANNELS 3 Zrotation Yrotation Xrotation
							JOINT lwrist
							{
								OFFSET	3.355540	-0.000000	0.000000
								CHANNELS 3 Zrotation Yrotation Xrotation
								JOINT lhand
								{
									OFFSET	1.677770	-0.000000	0.000000
									CHANNELS 3 Zrotation Yrotation Xrotation
									JOINT lfingers
									{
										OFFSET	0.661175	-0.000000	0.000000
										CHANNELS 3 Zrotation Yrotation Xrotation
										End Site
										{
											OFFSET	0.533057	-0.000000	0.000000
										}
									}
								}
								JOINT lthumb
								{
									OFFSET	1.677770	-0.000000	0.000000
									CHANNELS 3 Zrotation Yrotation Xrotation
									End Site
									{
										OFFSET	0.541196	-0.000000	0.541196
									}
								}
							}
						}
					}
				}
				JOINT rclavicle
				{
					OFFSET	0.001509	2.068054	0.008037
					CHANNELS 3 Zrotation Yrotation Xrotation
					JOINT rhumerus
					{
						OFFSET	-3.498016	0.759940	-0.326156
						CHANNELS 3 Zrotation Yrotation Xrotation
						JOINT rradius
						{
							OFFSET	-5.026490	-0.000000	0.000000
							CHANNELS 3 Zrotation Yrotation Xrotation
							JOINT rwrist
							{
								OFFSET	-3.364310	-0.000000	0.000000
								CHANNELS 3 Zrotation Yrotation Xrotation
								JOINT rhand
								{
									OFFSET	-1.682160	-0.000000	0.000000
									CHANNELS 3 Zrotation Yrotation Xrotation
									JOINT rfingers
									{
										OFFSET	-0.730406	-0.000000	0.000000
										CHANNELS 3 Zrotation Yrotation Xrotation
										End Site
										{
											OFFSET	-0.588872	-0.000000	0.000000
										}
									}
								}
								JOINT rthumb
								{
									OFFSET	-1.682160	-0.000000	0.000000
									CHANNELS 3 Zrotation Yrotation Xrotation
									End Site
									{
										OFFSET	-0.597863	-0.000000	0.597863
									}
								}
							}
						}
					}
				}
			}
		}
	}
}
MOTION
Frames:	9
Frame Time:	0.008333
	8.653410	18.044500	-2.606360	1.914490	-0.082401	2.072260	0.000000	0.000000	0.000000	-28.893507	1.806695	16.810177	1.840457	8.525537	24.322063	0.541856	8.723984	13.583276	1.095635	-6.651592	-18.687202	0.000000	0.000000	0.000000	16.090744	23.064283	-34.655186	-9.078289	-16.857834	56.360481	-1.049021	-5.290690	-21.943497	-0.994036	6.345243	-17.789484	-2.399580	-4.041029	5.991920	0.644612	-5.521700	0.526815	2.434319	-2.723310	-2.514050	-1.084880	3.290730	-15.128700	-1.558140	4.507910	-4.209560	-0.060733	2.207100	1.214960	-1.084880	0.000000	0.000000	-75.292007	-3.435620	52.477394	135.092361	-50.723160	-97.832771	0.000000	0.000000	-28.720991	33.664944	1.198409	0.798077	-7.125019	0.000000	0.000000	5.668230	31.389105	-1.894538	-1.084880	0.000000	0.000000	77.249542	-47.314701	42.775311	-66.601486	57.826698	-39.884144	-0.000000	0.000002	-11.566092	-51.436264	35.985390	-36.390343	7.125019	0.000000	0.000000	-9.117658	18.850073	-11.692545
	8.655110	18.097601	-2.178880	2.446930	0.166704	2.232240	0.000000	0.000000	0.000000	-29.221878	2.104959	16.665987	2.076198	9.023023	25.867369	0.406830	8.999157	12.140423	1.143652	-6.790933	-19.097454	0.000000	0.000000	0.000000	15.570238	22.605053	-33.918858	-7.856141	-16.012421	52.042850	-1.110141	-4.799404	-22.176451	-1.156274	6.827022	-19.203911	-2.564450	-4.122010	5.498500	0.418621	-5.635880	0.410832	2.266260	-2.781420	-2.359090	-0.672682	3.338740	-15.445100	-1.980990	4.527219	-3.562070	-0.248683	2.192240	1.507310	-0.672682	-0.000000	-0.000000	-75.271202	-2.449528	53.292603	134.898575	-50.818062	-97.682640	0.000000	-0.000002	-29.087204	33.285591	0.943444	0.619345	-7.125019	0.000000	0.000000	5.350666	31.082449	-1.827076	-0.672682	-0.000000	-0.000000	78.366066	-47.815907	41.666946	-67.747101	58.043633	-40.855011	0.000000	0.000000	-11.389593	-50.983517	35.742447	-35.789051	7.125019	0.000000	0.000000	-8.981021	18.337078	-11.463854
	8.659370	18.143700	-1.757720	3.008840	0.355828	2.349500	0.000000	0.000000	0.000000	-29.536804	2.478208	16.250216	2.380870	9.618013	27.748384	0.210371	10.290700	10.229591	0.847669	-5.872232	-16.414156	0.000000	0.000000	0.000000	15.019460	22.173687	-33.136024	-6.756515	-15.123384	47.947327	-1.211391	-4.070194	-22.622011	-1.286089	7.186162	-20.268078	-2.719050	-4.157980	5.285389	0.195813	-5.696480	0.220160	2.119370	-2.807400	-2.441350	-2.222090	3.468460	-14.612000	-0.267490	4.906761	-4.072920	0.546855	2.454401	1.110190	-2.222090	-0.000000	0.000000	-75.223381	-1.334736	54.159760	134.727890	-50.901085	-97.550262	-0.000000	0.000002	-29.478687	32.952530	0.584399	0.378814	-7.125019	0.000000	0.000000	5.065556	30.654505	-1.781132	-2.222090	-0.000000	0.000000	79.345406	-48.185429	40.718281	-68.888664	58.247108	-41.824646	0.000000	0.000000	-11.364197	-51.130051	35.460445	-35.744392	7.125019	0.000000	0.000000	-9.154933	18.113234	-11.667930
	8.659560	18.173500	-1.340190	3.310370	0.448285	2.352650	0.000000	0.000000	0.000000	-29.551962	2.901007	15.799214	2.735960	10.254836	29.805962	0.001263	11.781884	8.282473	0.542247	-4.717894	-13.105660	0.000000	0.000000	0.000000	14.829986	21.923138	-32.094734	-5.792612	-14.224315	44.143623	-1.318793	-3.459480	-23.184744	-1.642150	8.077139	-22.948624	-2.663901	-4.188500	5.195251	0.014812	-5.738370	0.106184	1.905340	-2.826920	-2.530390	-3.846870	3.552400	-13.725001	1.444430	5.225840	-4.979389	1.336230	2.682830	0.582305	-3.846870	-0.000000	0.000000	-75.048416	-0.167050	54.920357	134.497314	-51.012390	-97.371201	0.000000	-0.000002	-29.599295	32.891434	0.384800	0.248854	-7.125019	0.000000	0.000000	5.005719	30.417643	-1.788397	-3.846870	-0.000000	0.000000	80.237129	-48.251633	39.975243	-69.941284	58.423752	-42.720573	0.000000	0.000000	-11.646194	-51.063015	35.504936	-35.708961	7.125019	0.000000	0.000000	-9.105597	18.124290	-11.604849
	8.663260	18.196899	-0.922283	3.647651	0.512680	2.256000	0.000000	0.000000	0.000000	-29.595449	3.361486	15.316541	3.148054	10.930956	32.047371	-0.131281	12.406120	6.806659	0.502594	-4.544771	-12.614569	0.000000	0.000000	0.000000	14.660492	21.585384	-30.849428	-4.968099	-13.347778	40.684689	-1.359672	-2.689658	-23.141088	-1.178290	6.889451	-19.388275	-2.644450	-4.212690	5.076470	-0.173662	-5.770639	0.129015	1.693260	-2.845680	-2.460299	-3.388710	3.487269	-14.023001	0.756936	5.082390	-4.740720	1.046430	2.588230	0.738804	-3.388710	0.000000	0.000000	-74.943710	0.968613	55.584507	134.231323	-51.139538	-97.164238	0.000000	-0.000002	-29.505396	32.977421	0.072710	0.047183	-7.125019	0.000000	0.000000	5.055158	30.046965	-1.851107	-3.388710	0.000000	0.000000	81.100487	-48.081081	39.326729	-71.332977	58.641525	-43.907631	0.000000	-0.000002	-12.177495	-50.265823	35.088707	-34.666325	7.125019	0.000000	0.000000	-8.854151	17.236404	-11.189905
	8.673630	18.214600	-0.504514	4.070240	0.533054	2.136550	0.000000	0.000000	0.000000	-29.675512	3.968427	14.696785	3.625634	11.644835	34.486847	-0.205055	12.522118	5.710604	0.562754	-4.804825	-13.352722	0.000000	0.000000	0.000000	14.427209	21.087700	-29.640963	-4.295024	-12.542974	37.680912	-1.351057	-2.046347	-22.782133	-1.485702	7.700763	-21.808825	-2.767530	-4.214459	4.914200	-0.289731	-5.775499	0.240617	1.623160	-2.852120	-2.254310	-1.930330	3.499531	-14.795202	-1.182540	4.914811	-4.026670	0.216202	2.429990	1.186350	-1.930330	0.000000	0.000000	-75.152992	2.020700	56.152004	134.013626	-51.242626	-96.994606	-0.000000	0.000002	-29.423393	32.909626	-0.067798	-0.043879	-7.125019	0.000000	0.000000	4.993413	29.880514	-1.848235	-1.930330	0.000000	0.000000	81.740234	-47.725307	38.828594	-72.721901	58.841385	-45.094944	0.000000	0.000000	-12.555394	-49.981194	34.561535	-34.043766	7.125019	0.000000	0.000000	-8.893347	16.507061	-11.165654
	8.676370	18.222900	-0.079063	3.853699	0.647982	1.859600	0.000000	0.000000	0.000000	-28.905928	4.613042	14.185357	4.164147	12.375690	37.074295	-0.293915	12.787670	4.393427	0.535187	-4.687575	-13.019569	0.000000	0.000000	0.000000	14.983442	20.757174	-28.317139	-3.784624	-11.868152	35.267136	-1.440966	-2.101572	-23.521870	-1.475667	7.675860	-21.733805	-2.358290	-4.231771	4.791940	-0.198204	-5.766570	0.438534	1.471160	-2.857110	-2.013210	-1.608530	3.568200	-14.977200	-1.947810	4.966731	-4.008110	-0.070641	2.430540	1.252580	-1.608530	-0.000000	-0.000000	-75.550629	3.144596	56.733780	133.732162	-51.374695	-96.774918	-0.000000	0.000002	-29.257498	32.853294	-0.035746	-0.023086	-7.125019	0.000000	0.000000	4.951088	29.918926	-1.827906	-1.608530	-0.000000	-0.000000	82.318115	-47.117435	38.393326	-73.379120	58.929985	-45.657612	0.000000	-0.000002	-12.624994	-50.247894	34.370995	-34.166546	7.125019	0.000000	0.000000	-9.093514	16.440933	-11.415235
	8.667220	18.215401	0.342392	3.956220	0.788993	1.639570	0.000000	0.000000	0.000000	-28.391005	5.136120	13.418255	4.773597	13.124206	39.835205	-0.375591	12.993414	2.975088	0.531021	-4.669578	-12.968490	0.000000	0.000000	0.000000	15.164103	20.543695	-27.216103	-3.421156	-11.347477	33.460915	-1.621141	-2.134051	-24.906706	-1.558924	7.879613	-22.349014	-2.376820	-4.170420	4.708819	-0.196934	-5.681510	0.548121	1.465360	-2.817990	-1.855510	-1.783340	3.539710	-15.124201	-2.071430	4.961101	-4.040560	-0.077978	2.425790	1.265770	-1.783340	0.000000	0.000000	-75.879387	4.440380	57.555279	133.371506	-51.541763	-96.492821	0.000000	0.000000	-29.257294	32.987488	-0.183599	-0.119171	-7.125019	0.000000	0.000000	5.047459	29.742466	-1.885041	-1.783340	0.000000	0.000000	83.094078	-46.570553	37.773815	-74.281952	59.045586	-46.431400	-0.000000	0.000002	-12.545897	-50.084946	34.131691	-33.850018	7.125019	0.000000	0.000000	-9.092690	16.089481	-11.376594
	8.656400	18.178801	0.745017	4.749600	0.941453	1.435430	0.000000	0.000000	0.000000	-28.648651	5.544741	12.459846	5.488568	13.913727	42.892929	-0.435237	13.094681	1.686541	0.512675	-4.589452	-12.741200	0.000000	0.000000	0.000000	14.596155	20.085220	-26.322588	-3.150756	-10.935186	32.061607	-1.717742	-2.191647	-25.635115	-1.550467	7.859204	-22.287251	-3.151190	-4.057650	4.867270	-0.385817	-5.579290	0.611159	1.701960	-2.762831	-1.828360	-1.591830	3.447530	-15.701700	-2.438330	4.837030	-3.634680	-0.215947	2.340909	1.516790	-1.591830	-0.000000	0.000000	-76.092499	5.758323	58.372410	132.958786	-51.730179	-96.169228	-0.000000	0.000002	-29.243793	33.120590	0.027839	0.018158	-7.125019	0.000000	0.000000	5.165061	29.992788	-1.898335	-1.591830	-0.000000	0.000000	83.840370	-46.040470	37.240498	-75.574471	59.198925	-47.540733	-0.000000	0.000002	-12.441801	-49.763481	34.412048	-33.738552	7.125019	0.000000	0.000000	-8.834414	16.226763	-11.061138
